<?xml version="1.0" encoding="utf-8"?>
<!-- Generator: Adobe Illustrator 18.0.0, SVG Export Plug-In . SVG Version: 6.00 Build 0)  -->
<!DOCTYPE svg PUBLIC "-//W3C//DTD SVG 1.1//EN" "http://www.w3.org/Graphics/SVG/1.1/DTD/svg11.dtd">
<svg version="1.1" id="Layer_1" xmlns="http://www.w3.org/2000/svg" xmlns:xlink="http://www.w3.org/1999/xlink" x="0px" y="0px"
	 viewBox="-6 440 626 360" enable-background="new -6 440 626 360" xml:space="preserve">
<path d="M610.2,549.1c-1.9-12.9-6.8-28.7-15.6-48c-8.8-19.4-19.6-32.1-31.6-38.5s-25.3-6.4-38.8-0.2c-13.5,6.1-27,18.5-40,36.6
	c-12.9,18.2-25,42.2-35.4,72c0,0-0.9,2.7-2.2,4.4c-1.3,1.7-3.2,2.7-4.9-0.9c-1.7-3.6-1.1-11.7-4.5-27.2c-3.6-16.3-10.4-35.2-15.6-46
	c-4.7-9.9-11.7-21.5-18.6-28.6c-4.2-4.2-8.6-7.5-13.1-10c-12-6.4-25.3-6.4-38.8-0.2c-13.5,6.1-27,18.5-40,36.6
	c-12.9,18.2-25,42.2-35.3,72c0,0-0.9,2.7-2.3,4.4c-0.7,0.8-1.4,1.5-2.2,1.5s-1.7-0.7-2.6-2.4c-1.7-3.6-1.1-11.7-4.5-27.2
	c-3.6-16.3-10.4-35.2-15.6-46c-4.7-9.9-11.7-21.5-18.6-28.6c-4.2-4.2-8.6-7.5-13.1-10c-12-6.4-25.3-6.4-38.8-0.2
	c-13.5,6.1-27,18.5-40,36.6c-12.9,17.8-24.9,41.9-35.3,71.7c0,0-0.9,2.7-2.3,4.4c-0.6,0.8-1.4,1.4-2.1,1.5c-0.8-0.1-1.6-0.7-2.4-2.4
	c0,0,0,0-0.1,0c-3.5-7,9.2-56.7,10.3-126.8l-59.9,6.8c0,0-95.3,322.6-6.9,337.5c0,0,0.2,0.1,0.5,0.1l0,0c0.2,0,0.5,0.1,0.8,0.1h0.1
	c0.2,0,0.3,0,0.5,0.1l0,0c0.2,0,0.4,0,0.6,0c0.1,0,0.1,0,0.2,0c0.2,0,0.5,0,0.7,0l0,0l0,0c0.3,0,0.7,0,1,0c0.1,0,0.3,0,0.4,0
	c0.2,0,0.5,0,0.7-0.1c0.1,0,0.2,0,0.3,0c3.7-0.5,8.7-2.1,13.9-6.8s10.8-12.6,15.2-25.3c4.4-12.6,7.9-30.2,9.2-54.5
	c0-0.2,0-0.5,0.1-0.7l6.3-43.6c3.2-15.3,7.2-31.6,12-47.9c10-34.1,22.7-68.1,35.3-92.8v-0.3c11.3-22,22.4-36.4,31.1-36
	c0.9,0,1.8,0.2,2.7,0.6c9.2,4,17.7,40.8,14.8,78.9s-11.7,141.1-8.9,171.8v0.1c3,30.6,13.2,52.4,35.2,56.2c0,0,1.3,0.4,3.6,0.4
	c0.7,0,1.6-0.1,2.6-0.2c3.7-0.5,8.7-2.1,13.9-6.8s10.5-12.4,14.9-25.1c4.4-12.6,7.9-30.2,9.2-54.5c1.3-24.3,8.6-58.2,18.5-92.3
	c10-34.1,22.7-68.1,35.3-92.8v-0.1c12.5-24.6,24.9-39.6,34-35.6c9.2,4,17.7,40.8,14.8,78.9c-3,38.1-11.7,141.3-8.9,171.9
	c3,30.6,13.2,52.4,35.2,56.2c0,0,2.4,0.7,6.1,0.2s8.7-2.1,13.9-6.8c5.2-4.7,10.5-12.4,14.9-25.1c4.4-12.6,7.9-30.2,9.2-54.5
	c1.3-24.3,8.6-58.2,18.5-92.3c10-34.1,22.7-68.1,35.3-92.8c12.5-24.6,24.9-39.7,34.1-35.7c9.2,4,15.1,27.1,14.8,78.9
	c0,0-0.3,2.2-0.2,5.7s0.6,8,2.3,12.5s4.7,9.1,9.6,12.4c4.9,3.4,11.8,5.5,21.5,5.4c9.7-0.1,18.6-1.5,25.8-4.8
	c7.3-3.3,13.1-8.3,16.5-15.8C610.9,571.9,612,562,610.2,549.1z"/>
</svg>
